<svg xmlns="http://www.w3.org/2000/svg" xmlns:xlink="http://www.w3.org/1999/xlink" width="500" zoomAndPan="magnify" viewBox="0 0 375 374.999991" height="500" preserveAspectRatio="xMidYMid meet" version="1.2"><defs><clipPath id="a3facbf9f2"><path d="M 219.039062 163.265625 L 337.695312 163.265625 L 337.695312 223.535156 L 219.039062 223.535156 Z M 219.039062 163.265625 "/></clipPath><clipPath id="36388a08d2"><path d="M 236.289062 163.265625 L 320.25 163.265625 C 324.824219 163.265625 329.210938 165.082031 332.449219 168.320312 C 335.683594 171.554688 337.5 175.941406 337.5 180.515625 L 337.5 206.285156 C 337.5 210.859375 335.683594 215.25 332.449219 218.484375 C 329.210938 221.71875 324.824219 223.535156 320.25 223.535156 L 236.289062 223.535156 C 231.710938 223.535156 227.324219 221.71875 224.089844 218.484375 C 220.855469 215.25 219.039062 210.859375 219.039062 206.285156 L 219.039062 180.515625 C 219.039062 175.941406 220.855469 171.554688 224.089844 168.320312 C 227.324219 165.082031 231.710938 163.265625 236.289062 163.265625 Z M 236.289062 163.265625 "/></clipPath></defs><g id="56f4003ad6"><g clip-rule="nonzero" clip-path="url(#a3facbf9f2)"><g clip-rule="nonzero" clip-path="url(#36388a08d2)"><path style=" stroke:none;fill-rule:nonzero;fill:#545454;fill-opacity:1;" d="M 219.039062 163.265625 L 337.457031 163.265625 L 337.457031 223.535156 L 219.039062 223.535156 Z M 219.039062 163.265625 "/></g></g><g style="fill:#545454;fill-opacity:1;"><g transform="translate(37.500002, 210.699194)"><path style="stroke:none" d="M 20.84375 -31.859375 C 25.257812 -31.816406 29.015625 -30.226562 32.109375 -27.09375 C 35.203125 -23.957031 36.726562 -20.207031 36.6875 -15.84375 C 36.644531 -11.425781 35.054688 -7.671875 31.921875 -4.578125 C 28.785156 -1.484375 25.03125 0.0390625 20.65625 0 C 16.90625 0 13.546875 -1.21875 10.578125 -3.65625 L 10.578125 0 L 1.921875 0 L 1.859375 -43.171875 L 10.515625 -43.171875 L 10.515625 -28.078125 C 13.484375 -30.597656 16.925781 -31.859375 20.84375 -31.859375 Z M 26.296875 -10.328125 C 27.773438 -11.816406 28.554688 -13.671875 28.640625 -15.890625 C 28.640625 -17.992188 27.878906 -19.851562 26.359375 -21.46875 C 24.828125 -22.988281 22.96875 -23.75 20.78125 -23.75 C 18.632812 -23.75 16.78125 -23.007812 15.21875 -21.53125 C 13.6875 -20 12.921875 -18.140625 12.921875 -15.953125 C 12.847656 -13.816406 13.59375 -11.960938 15.15625 -10.390625 C 16.632812 -8.910156 18.488281 -8.128906 20.71875 -8.046875 C 22.90625 -8.046875 24.765625 -8.804688 26.296875 -10.328125 Z M 26.296875 -10.328125 "/></g></g><g style="fill:#545454;fill-opacity:1;"><g transform="translate(75.171771, 210.699194)"><path style="stroke:none" d="M 10.453125 -43.109375 L 10.453125 -35.8125 L 1.859375 -35.8125 L 1.859375 -43.109375 Z M 10.515625 -31.796875 L 10.515625 0 L 1.859375 0 L 1.859375 -31.796875 Z M 10.515625 -31.796875 "/></g></g><g style="fill:#545454;fill-opacity:1;"><g transform="translate(87.543447, 210.699194)"><path style="stroke:none" d="M 17.6875 -31.734375 C 22.226562 -32.109375 25.984375 -30.929688 28.953125 -28.203125 C 32.128906 -25.273438 33.71875 -21.171875 33.71875 -15.890625 L 33.71875 0 L 25.671875 0 L 25.671875 -15.71875 L 25.609375 -15.71875 L 25.609375 -15.84375 C 25.609375 -18.019531 24.847656 -19.875 23.328125 -21.40625 C 21.796875 -22.925781 19.9375 -23.6875 17.75 -23.6875 C 15.519531 -23.601562 13.664062 -22.820312 12.1875 -21.34375 C 10.613281 -19.769531 9.867188 -17.914062 9.953125 -15.78125 L 9.953125 -15.71875 L 9.890625 -15.71875 L 9.890625 0 L 1.234375 0 L 1.234375 -31.984375 L 9.890625 -31.984375 L 9.890625 -27.84375 C 11.835938 -30.144531 14.4375 -31.441406 17.6875 -31.734375 Z M 17.6875 -31.734375 "/></g></g><g style="fill:#545454;fill-opacity:1;"><g transform="translate(122.493445, 210.699194)"><path style="stroke:none" d="M 24.75 -31.984375 L 33.40625 -31.984375 L 33.40625 0 L 24.75 0 L 24.75 -3.59375 C 22.96875 -1.28125 20.285156 -0.125 16.703125 -0.125 C 12.328125 -0.0820312 8.570312 -1.609375 5.4375 -4.703125 C 2.3125 -7.796875 0.726562 -11.546875 0.6875 -15.953125 C 0.644531 -20.328125 2.171875 -24.082031 5.265625 -27.21875 C 8.347656 -30.351562 12.097656 -31.941406 16.515625 -31.984375 C 20.140625 -31.984375 22.882812 -30.804688 24.75 -28.453125 Z M 22.140625 -10.515625 C 23.671875 -12.046875 24.4375 -13.898438 24.4375 -16.078125 C 24.4375 -18.304688 23.648438 -20.164062 22.078125 -21.65625 C 20.515625 -23.21875 18.679688 -23.957031 16.578125 -23.875 C 14.390625 -23.875 12.535156 -23.113281 11.015625 -21.59375 C 9.484375 -20.0625 8.71875 -18.203125 8.71875 -16.015625 C 8.71875 -13.878906 9.503906 -12.023438 11.078125 -10.453125 C 12.597656 -8.929688 14.453125 -8.171875 16.640625 -8.171875 C 18.867188 -8.253906 20.703125 -9.035156 22.140625 -10.515625 Z M 22.140625 -10.515625 "/></g></g><g style="fill:#545454;fill-opacity:1;"><g transform="translate(157.752743, 210.699194)"><path style="stroke:none" d="M 10.515625 -27.09375 C 11.210938 -29.070312 12.390625 -30.453125 14.046875 -31.234375 C 15.648438 -32.023438 18.0625 -32.421875 21.28125 -32.421875 L 21.28125 -23.5625 C 18.144531 -23.5625 15.523438 -22.492188 13.421875 -20.359375 C 11.484375 -18.453125 10.515625 -16.367188 10.515625 -14.109375 L 10.515625 0 L 1.859375 0 L 1.859375 -31.859375 L 10.515625 -31.859375 Z M 10.515625 -27.09375 "/></g></g><g style="fill:#545454;fill-opacity:1;"><g transform="translate(179.959903, 210.699194)"><path style="stroke:none" d="M 31.859375 -31.921875 L 19.296875 1.421875 C 17.941406 4.722656 15.78125 7.34375 12.8125 9.28125 C 9.832031 11.21875 6.59375 12.144531 3.09375 12.0625 L 3.09375 3.40625 C 4.375 3.445312 5.648438 3.175781 6.921875 2.59375 C 8.742188 1.769531 10.109375 0.472656 11.015625 -1.296875 L 12.75 -6.0625 L 1.859375 -31.921875 L 11.375 -31.921875 L 17.140625 -18 L 22.265625 -31.921875 Z M 31.859375 -31.921875 "/></g></g><g style="fill:#ffffff;fill-opacity:1;"><g transform="translate(233.609725, 211.64356)"><path style="stroke:none" d="M 28.921875 0 L 22.15625 0 L 22.15625 -13.234375 L 22.09375 -13.234375 L 22.09375 -13.390625 C 22.09375 -15.203125 21.453125 -16.75 20.171875 -18.03125 C 18.890625 -19.320312 17.328125 -19.96875 15.484375 -19.96875 C 13.671875 -19.96875 12.109375 -19.304688 10.796875 -17.984375 C 9.472656 -16.660156 8.84375 -15.097656 8.90625 -13.296875 L 8.90625 -13.234375 L 8.859375 -13.234375 L 8.859375 0 L 1.5625 0 L 1.5625 -33.875 L 8.859375 -33.875 L 8.859375 -23.453125 C 10.492188 -25.398438 12.679688 -26.492188 15.421875 -26.734375 C 19.242188 -27.046875 22.410156 -26.054688 24.921875 -23.765625 C 27.585938 -21.296875 28.921875 -17.835938 28.921875 -13.390625 Z M 28.921875 0 "/></g></g><g style="fill:#ffffff;fill-opacity:1;"><g transform="translate(264.099264, 211.64356)"><path style="stroke:none" d="M 1.5625 -26.953125 L 8.34375 -26.953125 L 8.34375 -13.390625 C 8.34375 -12.867188 8.425781 -12.28125 8.59375 -11.625 C 8.800781 -10.820312 9.113281 -10.09375 9.53125 -9.4375 C 10.6875 -7.695312 12.320312 -6.828125 14.4375 -6.828125 C 16.769531 -6.828125 18.457031 -7.710938 19.5 -9.484375 C 19.875 -10.109375 20.148438 -10.835938 20.328125 -11.671875 C 20.460938 -12.265625 20.53125 -12.859375 20.53125 -13.453125 L 20.53125 -26.953125 L 27.828125 -26.953125 L 27.828125 0 L 20.53125 0 L 20.53125 -2.8125 C 18.832031 -0.9375 16.644531 0 13.96875 0 C 10.53125 0.03125 7.613281 -1.203125 5.21875 -3.703125 C 2.78125 -6.171875 1.5625 -9.226562 1.5625 -12.875 Z M 1.5625 -26.953125 "/></g></g><g style="fill:#ffffff;fill-opacity:1;"><g transform="translate(293.494303, 211.64356)"><path style="stroke:none" d="M 17.5625 -26.84375 C 21.28125 -26.8125 24.441406 -25.472656 27.046875 -22.828125 C 29.660156 -20.191406 30.945312 -17.03125 30.90625 -13.34375 C 30.875 -9.625 29.535156 -6.460938 26.890625 -3.859375 C 24.253906 -1.253906 21.09375 0.03125 17.40625 0 C 14.25 0 11.414062 -1.023438 8.90625 -3.078125 L 8.90625 0 L 1.609375 0 L 1.5625 -36.390625 L 8.859375 -36.390625 L 8.859375 -23.671875 C 11.359375 -25.785156 14.257812 -26.84375 17.5625 -26.84375 Z M 22.15625 -8.703125 C 23.40625 -9.953125 24.066406 -11.515625 24.140625 -13.390625 C 24.140625 -15.160156 23.492188 -16.726562 22.203125 -18.09375 C 20.921875 -19.375 19.359375 -20.015625 17.515625 -20.015625 C 15.703125 -20.015625 14.140625 -19.390625 12.828125 -18.140625 C 11.535156 -16.847656 10.890625 -15.285156 10.890625 -13.453125 C 10.828125 -11.640625 11.453125 -10.070312 12.765625 -8.75 C 14.015625 -7.5 15.582031 -6.84375 17.46875 -6.78125 C 19.300781 -6.78125 20.863281 -7.421875 22.15625 -8.703125 Z M 22.15625 -8.703125 "/></g></g></g></svg>